<svg xmlns="http://www.w3.org/2000/svg" width="1667" viewBox="0 0 1250.25 375" height="500" version="1.0"><defs><clipPath id="d"><path d="M.355.234h112.141v225.594H.356Zm0 0"/></clipPath><clipPath id="e"><path d="M17.594.234h77.66c4.574 0 8.957 1.817 12.191 5.051a17.23 17.23 0 0 1 5.051 12.188v190.699c0 4.57-1.816 8.957-5.05 12.187a17.24 17.24 0 0 1-12.192 5.051h-77.66c-4.57 0-8.957-1.816-12.188-5.05a17.23 17.23 0 0 1-5.05-12.188v-190.7c0-4.57 1.816-8.956 5.05-12.187A17.23 17.23 0 0 1 17.594.235m0 0"/></clipPath><clipPath id="c"><path d="M0 0h113v226H0z"/></clipPath><clipPath id="h"><path d="M.426.914h112.14v225.59H.426Zm0 0"/></clipPath><clipPath id="i"><path d="M17.664.914h77.66a17.237 17.237 0 0 1 17.242 17.238v190.696a17.237 17.237 0 0 1-17.242 17.238h-77.66A17.24 17.24 0 0 1 .426 208.848V18.152A17.237 17.237 0 0 1 17.664.914m0 0"/></clipPath><clipPath id="g"><path d="M0 0h113v227H0z"/></clipPath><clipPath id="j"><path d="M211.496 37.59h112.137V263H211.496Zm0 0"/></clipPath><clipPath id="k"><path d="M228.734 37.59h77.66a17.237 17.237 0 0 1 17.239 17.238v190.7a17.24 17.24 0 0 1-17.238 17.238h-77.66a17.24 17.24 0 0 1-17.238-17.238v-190.7a17.24 17.24 0 0 1 17.237-17.238m0 0"/></clipPath><mask id="b"><g filter="url(#a)"><path fill-opacity=".5" d="M-125.025-37.5h1500.3v450h-1500.3z"/></g></mask><mask id="f"><g filter="url(#a)"><path fill-opacity=".75" d="M-125.025-37.5h1500.3v450h-1500.3z"/></g></mask><filter x="0%" y="0%" width="100%" height="100%" id="a"><feColorMatrix values="0 0 0 0 1 0 0 0 0 1 0 0 0 0 1 0 0 0 1 0" color-interpolation-filters="sRGB"/></filter></defs><g mask="url(#b)"><g clip-path="url(#c)" transform="translate(99 112)"><g clip-path="url(#d)"><g clip-path="url(#e)"><path fill="#a78bfa" d="M.355.234h112.141v225.157H.356Zm0 0"/></g></g></g></g><g mask="url(#f)"><g clip-path="url(#g)" transform="translate(155 74)"><g clip-path="url(#h)"><g clip-path="url(#i)"><path fill="#a78bfa" d="M.426.914h112.14v225.152H.426Zm0 0"/></g></g></g></g><g clip-path="url(#j)"><g clip-path="url(#k)"><path fill="#a78bfa" d="M211.496 37.59h112.137v225.156H211.496Zm0 0"/></g></g><path d="M503.132 217.304c0-5.532-1.953-9.774-5.86-12.735q-5.859-4.437-21.093-9.359-15.223-4.936-24.094-9.719c-16.137-8.719-24.203-20.46-24.203-35.234q-.001-11.513 6.484-20.547 6.499-9.03 18.641-14.094 12.153-5.076 27.281-5.078 15.235.001 27.14 5.516 11.907 5.52 18.485 15.562 6.593 10.049 6.594 22.844h-29.281c0-6.508-2.055-11.566-6.156-15.172q-6.143-5.42-17.266-5.422-10.734.001-16.688 4.531-5.953 4.535-5.953 11.954c0 4.625 2.32 8.5 6.969 11.625q6.983 4.675 20.547 8.78 24.982 7.52 36.406 18.641 11.42 11.127 11.422 27.704 0 18.455-13.969 28.953-13.956 10.485-37.561 10.484-16.395 0-29.86-6c-8.98-4-15.828-9.476-20.546-16.437-4.72-6.97-7.079-15.04-7.079-24.22h29.375q-.001 23.532 28.11 23.532 10.436.002 16.297-4.25 5.859-4.248 5.859-11.86m81.091-94.28v25.968h18.062v20.688h-18.062v52.703q0 5.86 2.25 8.39 2.249 2.532 8.593 2.532 4.688 0 8.297-.672v21.375a58.2 58.2 0 0 1-17.078 2.531q-29.672.001-30.265-29.969v-56.89h-15.422v-20.688h15.421v-25.969Zm26.451 77.781q0-15.702 6.046-28 6.06-12.294 17.422-19.031 11.372-6.734 26.407-6.735 21.374 0 34.89 13.078 13.513 13.08 15.078 35.516l.188 7.234c0 16.2-4.524 29.196-13.563 38.985q-13.566 14.688-36.406 14.687-22.83 0-36.453-14.64c-9.074-9.758-13.61-23.033-13.61-39.813Zm28.202 2.061c0 10.012 1.882 17.672 5.656 22.985q5.67 7.954 16.203 7.953c6.832 0 12.164-2.617 16-7.86q5.766-7.856 5.766-25.14 0-14.73-5.766-22.828-5.753-8.11-16.187-8.11-10.346 0-16.016 8.063c-3.774 5.367-5.656 13.68-5.656 24.937m148.547-27.436q-5.766-.78-10.156-.781-16.003.002-20.985 10.843v69.094H728.08V148.991h26.656l.766 12.578q8.496-14.53 23.531-14.53 4.687 0 8.782 1.265Zm54.755 39.234 19.515-65.672h30.25l-42.453 121.985-2.344 5.562q-9.468 20.701-31.218 20.703-6.16 0-12.5-1.86v-21.373l4.297.094q7.998 0 11.953-2.438c2.632-1.625 4.703-4.324 6.203-8.094l3.311-8.688-36.983-105.89h30.343Zm90.655 39.922h-28.297V104.679h28.297Zm52.995 0h-28.297V148.991h28.297Zm-29.954-132.922q-.001-6.34 4.234-10.437 4.248-4.11 11.578-4.11 7.218 0 11.516 4.11 4.296 4.096 4.297 10.437-.002 6.44-4.344 10.547c-2.899 2.73-6.719 4.094-11.469 4.094q-7.126 0-11.469-4.094-4.345-4.107-4.343-10.547m48.793 79.141q0-15.702 6.046-28 6.06-12.294 17.422-19.031 11.372-6.734 26.407-6.735 21.374 0 34.89 13.078 13.513 13.08 15.078 35.516l.188 7.234c0 16.2-4.524 29.196-13.563 38.985q-13.566 14.688-36.406 14.687-22.83 0-36.453-14.64c-9.074-9.758-13.61-23.033-13.61-39.813Zm28.202 2.061c0 10.012 1.882 17.672 5.656 22.985q5.67 7.954 16.203 7.953c6.832 0 12.164-2.617 16-7.86q5.766-7.856 5.766-25.14 0-14.73-5.766-22.828-5.753-8.11-16.187-8.11-10.346 0-16.016 8.063c-3.774 5.367-5.656 13.68-5.656 24.937m0 0" fill="#fff"/></svg>